<svg width="267" height="259" viewBox="0 0 534 318" fill="none" xmlns="http://www.w3.org/2000/svg">
    <path d="M382.676 63.2357L382.674 63.2342C369.532 49.9657 356.224 36.6006 338.341 26.3643C320.662 16.2453 298.132 9 266.606 9C232.566 9 205.817 17.4364 185.56 33.5459C173.58 43.0726 163.545 55.5417 155.576 71.1543C161.206 67.1657 167.043 63.8664 173.096 61.2878C190.6 53.8307 209.277 52.6731 228.78 57.5171L226.612 66.2435L382.676 63.2357ZM382.676 63.2357L383.491 64.0585C398.894 79.6073 414.966 95.8317 437.727 101.482C457.229 106.332 475.907 105.178 493.411 97.7215C499.46 95.1447 505.295 91.8477 510.921 87.862M382.676 63.2357L510.921 87.862M510.921 87.862C502.954 103.467 492.921 115.931 480.944 125.455C460.687 141.564 433.938 150 399.903 150C368.378 150 345.844 142.752 328.162 132.633C310.276 122.397 296.967 109.035 283.825 95.7769L510.921 87.862ZM304.417 260.492L304.421 260.493C323.923 265.337 342.6 264.18 360.105 256.723C366.159 254.143 371.999 250.843 377.63 246.852C369.662 262.465 359.627 274.933 347.647 284.459C327.39 300.566 300.641 309 266.606 309C235.075 309 212.541 301.752 194.861 291.633C176.975 281.396 163.668 268.033 150.524 254.774C150.262 254.509 149.999 254.244 149.736 253.978C134.324 238.41 118.247 222.171 95.4722 216.517C75.9744 211.673 57.2997 212.831 39.7969 220.288C33.7426 222.867 27.9033 226.168 22.2723 230.158C30.2407 214.544 40.2761 202.074 52.2568 192.546C72.514 176.436 99.2632 168 133.298 168C164.822 168 187.356 175.25 205.038 185.372C222.925 195.611 236.235 208.977 249.379 222.237C249.65 222.51 249.921 222.784 250.193 223.058C265.597 238.608 281.668 254.831 304.417 260.492Z" stroke="#A7DCFF" stroke-width="18"/>
</svg>
